<mxfile host="Electron" modified="2024-12-01T11:23:51.009Z" agent="Mozilla/5.0 (Windows NT 10.0; Win64; x64) AppleWebKit/537.36 (KHTML, like Gecko) draw.io/21.6.1 Chrome/112.0.5615.204 Electron/24.6.1 Safari/537.36" etag="Gi1iInKI8IIhB0uHUX3N" version="21.6.1" type="device">
  <diagram name="Page-1" id="2YBvvXClWsGukQMizWep">
    <mxGraphModel dx="1886" dy="606" grid="1" gridSize="10" guides="1" tooltips="1" connect="1" arrows="1" fold="1" page="1" pageScale="1" pageWidth="850" pageHeight="1100" math="0" shadow="0">
      <root>
        <mxCell id="0" />
        <mxCell id="1" parent="0" />
        <mxCell id="aM9ryv3xv72pqoxQDRHE-1" value="ValidateRequest&lt;br&gt;Middleware" style="shape=umlLifeline;perimeter=lifelinePerimeter;whiteSpace=wrap;html=1;container=0;dropTarget=0;collapsible=0;recursiveResize=0;outlineConnect=0;portConstraint=eastwest;newEdgeStyle={&quot;edgeStyle&quot;:&quot;elbowEdgeStyle&quot;,&quot;elbow&quot;:&quot;vertical&quot;,&quot;curved&quot;:0,&quot;rounded&quot;:0};" parent="1" vertex="1">
          <mxGeometry x="240" y="60" width="100" height="1045" as="geometry" />
        </mxCell>
        <mxCell id="aM9ryv3xv72pqoxQDRHE-2" value="" style="html=1;points=[];perimeter=orthogonalPerimeter;outlineConnect=0;targetShapes=umlLifeline;portConstraint=eastwest;newEdgeStyle={&quot;edgeStyle&quot;:&quot;elbowEdgeStyle&quot;,&quot;elbow&quot;:&quot;vertical&quot;,&quot;curved&quot;:0,&quot;rounded&quot;:0};" parent="aM9ryv3xv72pqoxQDRHE-1" vertex="1">
          <mxGeometry x="45" y="80" width="10" height="80" as="geometry" />
        </mxCell>
        <mxCell id="SsyVgSXzkfGJAHjcYwTx-8" value="" style="html=1;points=[];perimeter=orthogonalPerimeter;outlineConnect=0;targetShapes=umlLifeline;portConstraint=eastwest;newEdgeStyle={&quot;edgeStyle&quot;:&quot;elbowEdgeStyle&quot;,&quot;elbow&quot;:&quot;vertical&quot;,&quot;curved&quot;:0,&quot;rounded&quot;:0};" vertex="1" parent="aM9ryv3xv72pqoxQDRHE-1">
          <mxGeometry x="45" y="740" width="10" height="10" as="geometry" />
        </mxCell>
        <mxCell id="SsyVgSXzkfGJAHjcYwTx-16" value="" style="html=1;points=[];perimeter=orthogonalPerimeter;outlineConnect=0;targetShapes=umlLifeline;portConstraint=eastwest;newEdgeStyle={&quot;edgeStyle&quot;:&quot;elbowEdgeStyle&quot;,&quot;elbow&quot;:&quot;vertical&quot;,&quot;curved&quot;:0,&quot;rounded&quot;:0};" vertex="1" parent="aM9ryv3xv72pqoxQDRHE-1">
          <mxGeometry x="45" y="610" width="10" height="10" as="geometry" />
        </mxCell>
        <mxCell id="aM9ryv3xv72pqoxQDRHE-5" value="Auth&lt;br&gt;Service" style="shape=umlLifeline;perimeter=lifelinePerimeter;whiteSpace=wrap;html=1;container=0;dropTarget=0;collapsible=0;recursiveResize=0;outlineConnect=0;portConstraint=eastwest;newEdgeStyle={&quot;edgeStyle&quot;:&quot;elbowEdgeStyle&quot;,&quot;elbow&quot;:&quot;vertical&quot;,&quot;curved&quot;:0,&quot;rounded&quot;:0};" parent="1" vertex="1">
          <mxGeometry x="510" y="60" width="100" height="1040" as="geometry" />
        </mxCell>
        <mxCell id="aM9ryv3xv72pqoxQDRHE-6" value="" style="html=1;points=[];perimeter=orthogonalPerimeter;outlineConnect=0;targetShapes=umlLifeline;portConstraint=eastwest;newEdgeStyle={&quot;edgeStyle&quot;:&quot;elbowEdgeStyle&quot;,&quot;elbow&quot;:&quot;vertical&quot;,&quot;curved&quot;:0,&quot;rounded&quot;:0};" parent="aM9ryv3xv72pqoxQDRHE-5" vertex="1">
          <mxGeometry x="45" y="170" width="10" height="320" as="geometry" />
        </mxCell>
        <mxCell id="aM9ryv3xv72pqoxQDRHE-7" value="register()" style="html=1;verticalAlign=bottom;endArrow=block;elbow=vertical;rounded=0;" parent="1" source="aM9ryv3xv72pqoxQDRHE-2" target="zKB6oyso-aB5GgyO3CQL-14" edge="1">
          <mxGeometry relative="1" as="geometry">
            <mxPoint x="370" y="190" as="sourcePoint" />
            <Array as="points">
              <mxPoint x="350" y="220" />
            </Array>
            <mxPoint as="offset" />
          </mxGeometry>
        </mxCell>
        <mxCell id="zKB6oyso-aB5GgyO3CQL-1" value="User&lt;br&gt;Service" style="shape=umlLifeline;perimeter=lifelinePerimeter;whiteSpace=wrap;html=1;container=0;dropTarget=0;collapsible=0;recursiveResize=0;outlineConnect=0;portConstraint=eastwest;newEdgeStyle={&quot;edgeStyle&quot;:&quot;elbowEdgeStyle&quot;,&quot;elbow&quot;:&quot;vertical&quot;,&quot;curved&quot;:0,&quot;rounded&quot;:0};" parent="1" vertex="1">
          <mxGeometry x="630" y="60" width="100" height="1040" as="geometry" />
        </mxCell>
        <mxCell id="zKB6oyso-aB5GgyO3CQL-10" value="" style="shape=umlLifeline;perimeter=lifelinePerimeter;whiteSpace=wrap;html=1;container=1;dropTarget=0;collapsible=0;recursiveResize=0;outlineConnect=0;portConstraint=eastwest;newEdgeStyle={&quot;edgeStyle&quot;:&quot;elbowEdgeStyle&quot;,&quot;elbow&quot;:&quot;vertical&quot;,&quot;curved&quot;:0,&quot;rounded&quot;:0};participant=umlActor;" parent="1" vertex="1">
          <mxGeometry x="40" y="60" width="20" height="1040" as="geometry" />
        </mxCell>
        <mxCell id="GkC1F4D74xaMyos7BvfS-3" value="" style="html=1;points=[];perimeter=orthogonalPerimeter;outlineConnect=0;targetShapes=umlLifeline;portConstraint=eastwest;newEdgeStyle={&quot;edgeStyle&quot;:&quot;elbowEdgeStyle&quot;,&quot;elbow&quot;:&quot;vertical&quot;,&quot;curved&quot;:0,&quot;rounded&quot;:0};" parent="zKB6oyso-aB5GgyO3CQL-10" vertex="1">
          <mxGeometry x="5" y="70" width="10" height="940" as="geometry" />
        </mxCell>
        <mxCell id="zKB6oyso-aB5GgyO3CQL-11" value="register request and validateSchema()" style="html=1;verticalAlign=bottom;endArrow=block;edgeStyle=elbowEdgeStyle;elbow=horizontal;curved=0;rounded=0;" parent="1" edge="1">
          <mxGeometry x="0.087" relative="1" as="geometry">
            <mxPoint x="54.99999999999977" y="140" as="sourcePoint" />
            <Array as="points">
              <mxPoint x="205" y="140" />
            </Array>
            <mxPoint x="284.9999999999998" y="140" as="targetPoint" />
            <mxPoint as="offset" />
          </mxGeometry>
        </mxCell>
        <mxCell id="zKB6oyso-aB5GgyO3CQL-13" value="Auth&lt;br&gt;Controller" style="shape=umlLifeline;perimeter=lifelinePerimeter;whiteSpace=wrap;html=1;container=0;dropTarget=0;collapsible=0;recursiveResize=0;outlineConnect=0;portConstraint=eastwest;newEdgeStyle={&quot;edgeStyle&quot;:&quot;elbowEdgeStyle&quot;,&quot;elbow&quot;:&quot;vertical&quot;,&quot;curved&quot;:0,&quot;rounded&quot;:0};" parent="1" vertex="1">
          <mxGeometry x="370" y="60" width="100" height="1040" as="geometry" />
        </mxCell>
        <mxCell id="zKB6oyso-aB5GgyO3CQL-14" value="" style="html=1;points=[];perimeter=orthogonalPerimeter;outlineConnect=0;targetShapes=umlLifeline;portConstraint=eastwest;newEdgeStyle={&quot;edgeStyle&quot;:&quot;elbowEdgeStyle&quot;,&quot;elbow&quot;:&quot;vertical&quot;,&quot;curved&quot;:0,&quot;rounded&quot;:0};" parent="zKB6oyso-aB5GgyO3CQL-13" vertex="1">
          <mxGeometry x="45" y="160" width="10" height="340" as="geometry" />
        </mxCell>
        <mxCell id="zKB6oyso-aB5GgyO3CQL-15" value="registerCustomer()" style="html=1;verticalAlign=bottom;endArrow=block;elbow=vertical;rounded=0;" parent="1" source="zKB6oyso-aB5GgyO3CQL-14" target="aM9ryv3xv72pqoxQDRHE-6" edge="1">
          <mxGeometry relative="1" as="geometry">
            <mxPoint x="390" y="190" as="sourcePoint" />
            <Array as="points">
              <mxPoint x="490" y="230" />
            </Array>
            <mxPoint x="540" y="190" as="targetPoint" />
          </mxGeometry>
        </mxCell>
        <mxCell id="GkC1F4D74xaMyos7BvfS-5" value="alt" style="shape=umlFrame;whiteSpace=wrap;html=1;pointerEvents=0;" parent="1" vertex="1">
          <mxGeometry x="-47.5" y="120" width="1187.5" height="730" as="geometry" />
        </mxCell>
        <mxCell id="GkC1F4D74xaMyos7BvfS-15" value="Database" style="shape=umlLifeline;perimeter=lifelinePerimeter;whiteSpace=wrap;html=1;container=0;dropTarget=0;collapsible=0;recursiveResize=0;outlineConnect=0;portConstraint=eastwest;newEdgeStyle={&quot;edgeStyle&quot;:&quot;elbowEdgeStyle&quot;,&quot;elbow&quot;:&quot;vertical&quot;,&quot;curved&quot;:0,&quot;rounded&quot;:0};" parent="1" vertex="1">
          <mxGeometry x="891" y="60" width="100" height="1040" as="geometry" />
        </mxCell>
        <mxCell id="uKRvdSnNrbbBDhizSGsv-8" value="" style="html=1;points=[];perimeter=orthogonalPerimeter;outlineConnect=0;targetShapes=umlLifeline;portConstraint=eastwest;newEdgeStyle={&quot;edgeStyle&quot;:&quot;elbowEdgeStyle&quot;,&quot;elbow&quot;:&quot;vertical&quot;,&quot;curved&quot;:0,&quot;rounded&quot;:0};" parent="GkC1F4D74xaMyos7BvfS-15" vertex="1">
          <mxGeometry x="45" y="315" width="10" height="15" as="geometry" />
        </mxCell>
        <mxCell id="uKRvdSnNrbbBDhizSGsv-31" value="" style="html=1;points=[];perimeter=orthogonalPerimeter;outlineConnect=0;targetShapes=umlLifeline;portConstraint=eastwest;newEdgeStyle={&quot;edgeStyle&quot;:&quot;elbowEdgeStyle&quot;,&quot;elbow&quot;:&quot;vertical&quot;,&quot;curved&quot;:0,&quot;rounded&quot;:0};" parent="GkC1F4D74xaMyos7BvfS-15" vertex="1">
          <mxGeometry x="45" y="200" width="10" height="20" as="geometry" />
        </mxCell>
        <mxCell id="SsyVgSXzkfGJAHjcYwTx-23" value="" style="html=1;points=[];perimeter=orthogonalPerimeter;outlineConnect=0;targetShapes=umlLifeline;portConstraint=eastwest;newEdgeStyle={&quot;edgeStyle&quot;:&quot;elbowEdgeStyle&quot;,&quot;elbow&quot;:&quot;vertical&quot;,&quot;curved&quot;:0,&quot;rounded&quot;:0};" vertex="1" parent="GkC1F4D74xaMyos7BvfS-15">
          <mxGeometry x="45" y="650" width="10" height="10" as="geometry" />
        </mxCell>
        <mxCell id="GkC1F4D74xaMyos7BvfS-44" value="Error&lt;br&gt;Middleware" style="shape=umlLifeline;perimeter=lifelinePerimeter;whiteSpace=wrap;html=1;container=0;dropTarget=0;collapsible=0;recursiveResize=0;outlineConnect=0;portConstraint=eastwest;newEdgeStyle={&quot;edgeStyle&quot;:&quot;elbowEdgeStyle&quot;,&quot;elbow&quot;:&quot;vertical&quot;,&quot;curved&quot;:0,&quot;rounded&quot;:0};" parent="1" vertex="1">
          <mxGeometry x="120" y="60" width="95" height="1040" as="geometry" />
        </mxCell>
        <mxCell id="SsyVgSXzkfGJAHjcYwTx-2" value="" style="html=1;points=[];perimeter=orthogonalPerimeter;outlineConnect=0;targetShapes=umlLifeline;portConstraint=eastwest;newEdgeStyle={&quot;edgeStyle&quot;:&quot;elbowEdgeStyle&quot;,&quot;elbow&quot;:&quot;vertical&quot;,&quot;curved&quot;:0,&quot;rounded&quot;:0};" vertex="1" parent="GkC1F4D74xaMyos7BvfS-44">
          <mxGeometry x="42.5" y="569.77" width="10" height="10" as="geometry" />
        </mxCell>
        <mxCell id="SsyVgSXzkfGJAHjcYwTx-13" value="" style="html=1;points=[];perimeter=orthogonalPerimeter;outlineConnect=0;targetShapes=umlLifeline;portConstraint=eastwest;newEdgeStyle={&quot;edgeStyle&quot;:&quot;elbowEdgeStyle&quot;,&quot;elbow&quot;:&quot;vertical&quot;,&quot;curved&quot;:0,&quot;rounded&quot;:0};" vertex="1" parent="GkC1F4D74xaMyos7BvfS-44">
          <mxGeometry x="43" y="750" width="10" height="10" as="geometry" />
        </mxCell>
        <mxCell id="SsyVgSXzkfGJAHjcYwTx-18" value="" style="html=1;points=[];perimeter=orthogonalPerimeter;outlineConnect=0;targetShapes=umlLifeline;portConstraint=eastwest;newEdgeStyle={&quot;edgeStyle&quot;:&quot;elbowEdgeStyle&quot;,&quot;elbow&quot;:&quot;vertical&quot;,&quot;curved&quot;:0,&quot;rounded&quot;:0};" vertex="1" parent="GkC1F4D74xaMyos7BvfS-44">
          <mxGeometry x="42.5" y="620" width="10" height="10" as="geometry" />
        </mxCell>
        <mxCell id="SsyVgSXzkfGJAHjcYwTx-33" value="" style="html=1;points=[];perimeter=orthogonalPerimeter;outlineConnect=0;targetShapes=umlLifeline;portConstraint=eastwest;newEdgeStyle={&quot;edgeStyle&quot;:&quot;elbowEdgeStyle&quot;,&quot;elbow&quot;:&quot;vertical&quot;,&quot;curved&quot;:0,&quot;rounded&quot;:0};" vertex="1" parent="GkC1F4D74xaMyos7BvfS-44">
          <mxGeometry x="43" y="690" width="10" height="10" as="geometry" />
        </mxCell>
        <mxCell id="GkC1F4D74xaMyos7BvfS-71" value="User&lt;br&gt;Schema" style="shape=umlLifeline;perimeter=lifelinePerimeter;whiteSpace=wrap;html=1;container=0;dropTarget=0;collapsible=0;recursiveResize=0;outlineConnect=0;portConstraint=eastwest;newEdgeStyle={&quot;edgeStyle&quot;:&quot;elbowEdgeStyle&quot;,&quot;elbow&quot;:&quot;vertical&quot;,&quot;curved&quot;:0,&quot;rounded&quot;:0};" parent="1" vertex="1">
          <mxGeometry x="761" y="60" width="100" height="1040" as="geometry" />
        </mxCell>
        <mxCell id="uKRvdSnNrbbBDhizSGsv-6" value="" style="html=1;points=[];perimeter=orthogonalPerimeter;outlineConnect=0;targetShapes=umlLifeline;portConstraint=eastwest;newEdgeStyle={&quot;edgeStyle&quot;:&quot;elbowEdgeStyle&quot;,&quot;elbow&quot;:&quot;vertical&quot;,&quot;curved&quot;:0,&quot;rounded&quot;:0};" parent="GkC1F4D74xaMyos7BvfS-71" vertex="1">
          <mxGeometry x="45" y="305" width="10" height="35" as="geometry" />
        </mxCell>
        <mxCell id="xMGgh6MaADuXmPXkzUnw-2" value="" style="html=1;points=[];perimeter=orthogonalPerimeter;outlineConnect=0;targetShapes=umlLifeline;portConstraint=eastwest;newEdgeStyle={&quot;edgeStyle&quot;:&quot;elbowEdgeStyle&quot;,&quot;elbow&quot;:&quot;vertical&quot;,&quot;curved&quot;:0,&quot;rounded&quot;:0};" parent="GkC1F4D74xaMyos7BvfS-71" vertex="1">
          <mxGeometry x="45" y="190" width="10" height="40" as="geometry" />
        </mxCell>
        <mxCell id="SsyVgSXzkfGJAHjcYwTx-26" value="" style="html=1;points=[];perimeter=orthogonalPerimeter;outlineConnect=0;targetShapes=umlLifeline;portConstraint=eastwest;newEdgeStyle={&quot;edgeStyle&quot;:&quot;elbowEdgeStyle&quot;,&quot;elbow&quot;:&quot;vertical&quot;,&quot;curved&quot;:0,&quot;rounded&quot;:0};" vertex="1" parent="GkC1F4D74xaMyos7BvfS-71">
          <mxGeometry x="45" y="660" width="10" height="10" as="geometry" />
        </mxCell>
        <mxCell id="GkC1F4D74xaMyos7BvfS-101" value="Client" style="text;html=1;align=center;verticalAlign=middle;resizable=0;points=[];autosize=1;strokeColor=none;fillColor=none;" parent="1" vertex="1">
          <mxGeometry x="25" y="40" width="50" height="30" as="geometry" />
        </mxCell>
        <mxCell id="uKRvdSnNrbbBDhizSGsv-1" value="" style="html=1;points=[];perimeter=orthogonalPerimeter;outlineConnect=0;targetShapes=umlLifeline;portConstraint=eastwest;newEdgeStyle={&quot;edgeStyle&quot;:&quot;elbowEdgeStyle&quot;,&quot;elbow&quot;:&quot;vertical&quot;,&quot;curved&quot;:0,&quot;rounded&quot;:0};" parent="1" vertex="1">
          <mxGeometry x="290" y="164" width="10" height="20" as="geometry" />
        </mxCell>
        <mxCell id="uKRvdSnNrbbBDhizSGsv-2" value="validateFile()" style="html=1;align=left;spacingLeft=2;endArrow=block;rounded=0;edgeStyle=orthogonalEdgeStyle;curved=0;rounded=0;" parent="1" target="uKRvdSnNrbbBDhizSGsv-1" edge="1">
          <mxGeometry x="0.1765" relative="1" as="geometry">
            <mxPoint x="295" y="154" as="sourcePoint" />
            <Array as="points">
              <mxPoint x="310" y="154" />
              <mxPoint x="310" y="174" />
            </Array>
            <mxPoint as="offset" />
          </mxGeometry>
        </mxCell>
        <mxCell id="uKRvdSnNrbbBDhizSGsv-4" value="createCustomer()" style="html=1;verticalAlign=bottom;endArrow=block;elbow=vertical;rounded=0;" parent="1" source="aM9ryv3xv72pqoxQDRHE-6" target="uKRvdSnNrbbBDhizSGsv-5" edge="1">
          <mxGeometry relative="1" as="geometry">
            <mxPoint x="565" y="355" as="sourcePoint" />
            <Array as="points">
              <mxPoint x="630" y="355" />
            </Array>
            <mxPoint x="695" y="355" as="targetPoint" />
          </mxGeometry>
        </mxCell>
        <mxCell id="uKRvdSnNrbbBDhizSGsv-5" value="" style="html=1;points=[];perimeter=orthogonalPerimeter;outlineConnect=0;targetShapes=umlLifeline;portConstraint=eastwest;newEdgeStyle={&quot;edgeStyle&quot;:&quot;elbowEdgeStyle&quot;,&quot;elbow&quot;:&quot;vertical&quot;,&quot;curved&quot;:0,&quot;rounded&quot;:0};" parent="1" vertex="1">
          <mxGeometry x="675" y="355" width="10" height="185" as="geometry" />
        </mxCell>
        <mxCell id="uKRvdSnNrbbBDhizSGsv-7" value="create()" style="html=1;verticalAlign=bottom;endArrow=block;elbow=vertical;rounded=0;" parent="1" source="uKRvdSnNrbbBDhizSGsv-5" target="uKRvdSnNrbbBDhizSGsv-6" edge="1">
          <mxGeometry relative="1" as="geometry">
            <mxPoint x="685" y="365" as="sourcePoint" />
            <Array as="points">
              <mxPoint x="750" y="365" />
            </Array>
            <mxPoint x="795" y="365" as="targetPoint" />
          </mxGeometry>
        </mxCell>
        <mxCell id="uKRvdSnNrbbBDhizSGsv-9" value="create query" style="html=1;verticalAlign=bottom;endArrow=block;elbow=vertical;rounded=0;" parent="1" source="uKRvdSnNrbbBDhizSGsv-6" target="uKRvdSnNrbbBDhizSGsv-8" edge="1">
          <mxGeometry relative="1" as="geometry">
            <mxPoint x="810" y="375" as="sourcePoint" />
            <Array as="points">
              <mxPoint x="875" y="375" />
            </Array>
            <mxPoint x="930" y="375" as="targetPoint" />
          </mxGeometry>
        </mxCell>
        <mxCell id="uKRvdSnNrbbBDhizSGsv-10" value="return User" style="html=1;verticalAlign=bottom;endArrow=open;dashed=1;elbow=horizontal;rounded=0;" parent="1" source="uKRvdSnNrbbBDhizSGsv-8" target="uKRvdSnNrbbBDhizSGsv-6" edge="1">
          <mxGeometry x="-0.0278" y="20" relative="1" as="geometry">
            <mxPoint x="810" y="395" as="targetPoint" />
            <mxPoint x="930" y="395" as="sourcePoint" />
            <mxPoint as="offset" />
            <Array as="points">
              <mxPoint x="870" y="390" />
            </Array>
          </mxGeometry>
        </mxCell>
        <mxCell id="uKRvdSnNrbbBDhizSGsv-11" value="return User" style="html=1;verticalAlign=bottom;endArrow=open;dashed=1;elbow=horizontal;rounded=0;" parent="1" edge="1">
          <mxGeometry x="-0.0833" y="20" relative="1" as="geometry">
            <mxPoint x="685.0000000000002" y="399.84" as="targetPoint" />
            <mxPoint x="805.0000000000002" y="399.84" as="sourcePoint" />
            <mxPoint as="offset" />
            <Array as="points">
              <mxPoint x="740" y="399.84" />
            </Array>
          </mxGeometry>
        </mxCell>
        <mxCell id="uKRvdSnNrbbBDhizSGsv-27" value="findOne(email)" style="html=1;verticalAlign=bottom;endArrow=block;elbow=vertical;rounded=0;" parent="1" source="aM9ryv3xv72pqoxQDRHE-6" target="xMGgh6MaADuXmPXkzUnw-1" edge="1">
          <mxGeometry relative="1" as="geometry">
            <mxPoint x="575" y="240" as="sourcePoint" />
            <Array as="points">
              <mxPoint x="640" y="240" />
            </Array>
            <mxPoint x="660" y="240" as="targetPoint" />
          </mxGeometry>
        </mxCell>
        <mxCell id="uKRvdSnNrbbBDhizSGsv-35" value="return null" style="html=1;verticalAlign=bottom;endArrow=open;dashed=1;elbow=horizontal;rounded=0;" parent="1" edge="1">
          <mxGeometry x="-0.0278" y="20" relative="1" as="geometry">
            <mxPoint x="565" y="300" as="targetPoint" />
            <mxPoint x="675.0000000000002" y="300" as="sourcePoint" />
            <mxPoint as="offset" />
            <Array as="points">
              <mxPoint x="630" y="300" />
            </Array>
          </mxGeometry>
        </mxCell>
        <mxCell id="xMGgh6MaADuXmPXkzUnw-1" value="" style="html=1;points=[];perimeter=orthogonalPerimeter;outlineConnect=0;targetShapes=umlLifeline;portConstraint=eastwest;newEdgeStyle={&quot;edgeStyle&quot;:&quot;elbowEdgeStyle&quot;,&quot;elbow&quot;:&quot;vertical&quot;,&quot;curved&quot;:0,&quot;rounded&quot;:0};" parent="1" vertex="1">
          <mxGeometry x="675" y="240" width="10" height="60" as="geometry" />
        </mxCell>
        <mxCell id="xMGgh6MaADuXmPXkzUnw-3" value="findOne(email)" style="html=1;verticalAlign=bottom;endArrow=block;elbow=vertical;rounded=0;" parent="1" source="xMGgh6MaADuXmPXkzUnw-1" target="xMGgh6MaADuXmPXkzUnw-2" edge="1">
          <mxGeometry relative="1" as="geometry">
            <mxPoint x="700" y="249.71" as="sourcePoint" />
            <Array as="points">
              <mxPoint x="775" y="249.71" />
            </Array>
            <mxPoint x="810" y="249.71" as="targetPoint" />
          </mxGeometry>
        </mxCell>
        <mxCell id="xMGgh6MaADuXmPXkzUnw-4" value="find query" style="html=1;verticalAlign=bottom;endArrow=block;elbow=vertical;rounded=0;" parent="1" source="xMGgh6MaADuXmPXkzUnw-2" target="uKRvdSnNrbbBDhizSGsv-31" edge="1">
          <mxGeometry relative="1" as="geometry">
            <mxPoint x="810" y="260.29" as="sourcePoint" />
            <Array as="points">
              <mxPoint x="900" y="260.00000000000006" />
            </Array>
            <mxPoint x="930" y="260.29" as="targetPoint" />
          </mxGeometry>
        </mxCell>
        <mxCell id="xMGgh6MaADuXmPXkzUnw-5" value="return null" style="html=1;verticalAlign=bottom;endArrow=open;dashed=1;elbow=horizontal;rounded=0;" parent="1" edge="1">
          <mxGeometry x="-0.0833" y="20" relative="1" as="geometry">
            <mxPoint x="685.0000000000002" y="290" as="targetPoint" />
            <mxPoint x="805" y="290" as="sourcePoint" />
            <mxPoint as="offset" />
            <Array as="points">
              <mxPoint x="735" y="290" />
            </Array>
          </mxGeometry>
        </mxCell>
        <mxCell id="xMGgh6MaADuXmPXkzUnw-6" value="return null" style="html=1;verticalAlign=bottom;endArrow=open;dashed=1;elbow=horizontal;rounded=0;" parent="1" source="uKRvdSnNrbbBDhizSGsv-31" target="xMGgh6MaADuXmPXkzUnw-2" edge="1">
          <mxGeometry x="0.0833" y="20" relative="1" as="geometry">
            <mxPoint x="820" y="280" as="targetPoint" />
            <mxPoint x="940" y="280" as="sourcePoint" />
            <mxPoint as="offset" />
            <Array as="points">
              <mxPoint x="870" y="280" />
            </Array>
          </mxGeometry>
        </mxCell>
        <mxCell id="xMGgh6MaADuXmPXkzUnw-7" value="alt" style="shape=umlFrame;whiteSpace=wrap;html=1;pointerEvents=0;" parent="1" vertex="1">
          <mxGeometry x="600" y="430" width="490" height="100" as="geometry" />
        </mxCell>
        <mxCell id="xMGgh6MaADuXmPXkzUnw-8" value="[Have File]" style="text;html=1;align=center;verticalAlign=middle;resizable=0;points=[];autosize=1;strokeColor=none;fillColor=none;" parent="1" vertex="1">
          <mxGeometry x="600" y="460" width="80" height="30" as="geometry" />
        </mxCell>
        <mxCell id="xMGgh6MaADuXmPXkzUnw-10" value="Cloudinary&lt;br&gt;Service" style="shape=umlLifeline;perimeter=lifelinePerimeter;whiteSpace=wrap;html=1;container=0;dropTarget=0;collapsible=0;recursiveResize=0;outlineConnect=0;portConstraint=eastwest;newEdgeStyle={&quot;edgeStyle&quot;:&quot;elbowEdgeStyle&quot;,&quot;elbow&quot;:&quot;vertical&quot;,&quot;curved&quot;:0,&quot;rounded&quot;:0};" parent="1" vertex="1">
          <mxGeometry x="1010" y="60" width="100" height="1040" as="geometry" />
        </mxCell>
        <mxCell id="xMGgh6MaADuXmPXkzUnw-18" value="" style="html=1;points=[];perimeter=orthogonalPerimeter;outlineConnect=0;targetShapes=umlLifeline;portConstraint=eastwest;newEdgeStyle={&quot;edgeStyle&quot;:&quot;elbowEdgeStyle&quot;,&quot;elbow&quot;:&quot;vertical&quot;,&quot;curved&quot;:0,&quot;rounded&quot;:0};" parent="xMGgh6MaADuXmPXkzUnw-10" vertex="1">
          <mxGeometry x="45" y="420" width="10" height="20" as="geometry" />
        </mxCell>
        <mxCell id="xMGgh6MaADuXmPXkzUnw-15" value="" style="html=1;points=[];perimeter=orthogonalPerimeter;outlineConnect=0;targetShapes=umlLifeline;portConstraint=eastwest;newEdgeStyle={&quot;edgeStyle&quot;:&quot;elbowEdgeStyle&quot;,&quot;elbow&quot;:&quot;vertical&quot;,&quot;curved&quot;:0,&quot;rounded&quot;:0};" parent="1" vertex="1">
          <mxGeometry x="680" y="450" width="10" height="20" as="geometry" />
        </mxCell>
        <mxCell id="xMGgh6MaADuXmPXkzUnw-16" value="saveAvatar(user, file)" style="html=1;align=left;spacingLeft=2;endArrow=block;rounded=0;edgeStyle=orthogonalEdgeStyle;curved=0;rounded=0;" parent="1" target="xMGgh6MaADuXmPXkzUnw-15" edge="1">
          <mxGeometry x="0.1728" relative="1" as="geometry">
            <mxPoint x="685" y="440" as="sourcePoint" />
            <Array as="points">
              <mxPoint x="700" y="440" />
              <mxPoint x="700" y="460" />
            </Array>
            <mxPoint as="offset" />
          </mxGeometry>
        </mxCell>
        <mxCell id="xMGgh6MaADuXmPXkzUnw-17" value="uploadBuffer(file)" style="html=1;verticalAlign=bottom;endArrow=block;elbow=vertical;rounded=0;" parent="1" source="uKRvdSnNrbbBDhizSGsv-5" target="xMGgh6MaADuXmPXkzUnw-18" edge="1">
          <mxGeometry relative="1" as="geometry">
            <mxPoint x="680" y="480" as="sourcePoint" />
            <Array as="points" />
            <mxPoint x="675.0000000000002" y="480" as="targetPoint" />
          </mxGeometry>
        </mxCell>
        <mxCell id="xMGgh6MaADuXmPXkzUnw-20" value="return data obj" style="html=1;verticalAlign=bottom;endArrow=open;dashed=1;elbow=horizontal;rounded=0;" parent="1" source="xMGgh6MaADuXmPXkzUnw-18" target="uKRvdSnNrbbBDhizSGsv-5" edge="1">
          <mxGeometry y="20" relative="1" as="geometry">
            <mxPoint x="710.0000000000002" y="500" as="targetPoint" />
            <mxPoint x="830.0000000000002" y="500" as="sourcePoint" />
            <mxPoint as="offset" />
            <Array as="points">
              <mxPoint x="765" y="500" />
            </Array>
          </mxGeometry>
        </mxCell>
        <mxCell id="xMGgh6MaADuXmPXkzUnw-22" value="return User" style="html=1;verticalAlign=bottom;endArrow=open;dashed=1;elbow=horizontal;rounded=0;" parent="1" source="uKRvdSnNrbbBDhizSGsv-5" target="aM9ryv3xv72pqoxQDRHE-6" edge="1">
          <mxGeometry y="20" relative="1" as="geometry">
            <mxPoint x="570" y="540" as="targetPoint" />
            <mxPoint x="940" y="540" as="sourcePoint" />
            <mxPoint as="offset" />
            <Array as="points">
              <mxPoint x="650" y="540" />
            </Array>
          </mxGeometry>
        </mxCell>
        <mxCell id="xMGgh6MaADuXmPXkzUnw-23" value="return User" style="html=1;verticalAlign=bottom;endArrow=open;dashed=1;elbow=horizontal;rounded=0;" parent="1" source="aM9ryv3xv72pqoxQDRHE-6" target="zKB6oyso-aB5GgyO3CQL-14" edge="1">
          <mxGeometry y="20" relative="1" as="geometry">
            <mxPoint x="425" y="549" as="targetPoint" />
            <mxPoint x="535" y="549" as="sourcePoint" />
            <mxPoint as="offset" />
            <Array as="points">
              <mxPoint x="510" y="549" />
            </Array>
          </mxGeometry>
        </mxCell>
        <mxCell id="xMGgh6MaADuXmPXkzUnw-24" value="response 200 with data" style="html=1;verticalAlign=bottom;endArrow=open;dashed=1;elbow=horizontal;rounded=0;" parent="1" source="zKB6oyso-aB5GgyO3CQL-14" target="GkC1F4D74xaMyos7BvfS-3" edge="1">
          <mxGeometry y="20" relative="1" as="geometry">
            <mxPoint x="280" y="559" as="targetPoint" />
            <mxPoint x="410" y="559" as="sourcePoint" />
            <mxPoint as="offset" />
            <Array as="points">
              <mxPoint x="365" y="559" />
            </Array>
          </mxGeometry>
        </mxCell>
        <mxCell id="xMGgh6MaADuXmPXkzUnw-25" value="alt" style="shape=umlFrame;whiteSpace=wrap;html=1;pointerEvents=0;" parent="1" vertex="1">
          <mxGeometry x="195" y="148.5" width="200" height="51" as="geometry" />
        </mxCell>
        <mxCell id="xMGgh6MaADuXmPXkzUnw-26" value="[Have File]" style="text;html=1;align=center;verticalAlign=middle;resizable=0;points=[];autosize=1;strokeColor=none;fillColor=none;" parent="1" vertex="1">
          <mxGeometry x="195" y="174" width="80" height="30" as="geometry" />
        </mxCell>
        <mxCell id="SsyVgSXzkfGJAHjcYwTx-1" value="[Invalid data]" style="text;html=1;align=center;verticalAlign=middle;resizable=0;points=[];autosize=1;strokeColor=none;fillColor=none;" vertex="1" parent="1">
          <mxGeometry x="-45" y="619.77" width="90" height="30" as="geometry" />
        </mxCell>
        <mxCell id="SsyVgSXzkfGJAHjcYwTx-4" value="" style="html=1;points=[];perimeter=orthogonalPerimeter;outlineConnect=0;targetShapes=umlLifeline;portConstraint=eastwest;newEdgeStyle={&quot;edgeStyle&quot;:&quot;elbowEdgeStyle&quot;,&quot;elbow&quot;:&quot;vertical&quot;,&quot;curved&quot;:0,&quot;rounded&quot;:0};" vertex="1" parent="1">
          <mxGeometry x="285" y="619.77" width="10" height="10" as="geometry" />
        </mxCell>
        <mxCell id="SsyVgSXzkfGJAHjcYwTx-5" value="throw Bad Request &lt;br&gt;Exception" style="html=1;verticalAlign=bottom;endArrow=open;dashed=1;elbow=horizontal;rounded=0;" edge="1" parent="1" source="SsyVgSXzkfGJAHjcYwTx-4" target="SsyVgSXzkfGJAHjcYwTx-2">
          <mxGeometry relative="1" as="geometry">
            <mxPoint x="145" y="639.77" as="targetPoint" />
            <mxPoint x="265" y="629.77" as="sourcePoint" />
            <mxPoint as="offset" />
          </mxGeometry>
        </mxCell>
        <mxCell id="SsyVgSXzkfGJAHjcYwTx-6" value="" style="endArrow=none;dashed=1;html=1;dashPattern=1 3;strokeWidth=2;rounded=0;" edge="1" parent="1">
          <mxGeometry width="50" height="50" relative="1" as="geometry">
            <mxPoint x="-270" y="590" as="sourcePoint" />
            <mxPoint x="1310" y="590" as="targetPoint" />
          </mxGeometry>
        </mxCell>
        <mxCell id="SsyVgSXzkfGJAHjcYwTx-3" value="response 400" style="html=1;verticalAlign=bottom;endArrow=open;dashed=1;endSize=8;elbow=horizontal;rounded=0;" edge="1" parent="1" source="SsyVgSXzkfGJAHjcYwTx-2" target="GkC1F4D74xaMyos7BvfS-3">
          <mxGeometry relative="1" as="geometry">
            <mxPoint x="80" y="639.77" as="targetPoint" />
            <Array as="points">
              <mxPoint x="110" y="640" />
            </Array>
            <mxPoint x="180" y="639.77" as="sourcePoint" />
            <mxPoint as="offset" />
          </mxGeometry>
        </mxCell>
        <mxCell id="SsyVgSXzkfGJAHjcYwTx-9" value="[File too large]" style="text;html=1;align=center;verticalAlign=middle;resizable=0;points=[];autosize=1;strokeColor=none;fillColor=none;" vertex="1" parent="1">
          <mxGeometry x="-50" y="800" width="100" height="30" as="geometry" />
        </mxCell>
        <mxCell id="SsyVgSXzkfGJAHjcYwTx-10" value="throw Payload &lt;br&gt;Too Large&lt;br&gt;Exception" style="html=1;verticalAlign=bottom;endArrow=open;dashed=1;elbow=horizontal;rounded=0;" edge="1" parent="1" source="SsyVgSXzkfGJAHjcYwTx-8" target="SsyVgSXzkfGJAHjcYwTx-13">
          <mxGeometry relative="1" as="geometry">
            <mxPoint x="179" y="605" as="targetPoint" />
            <mxPoint x="291" y="605" as="sourcePoint" />
            <mxPoint as="offset" />
          </mxGeometry>
        </mxCell>
        <mxCell id="SsyVgSXzkfGJAHjcYwTx-14" value="response 413" style="html=1;verticalAlign=bottom;endArrow=open;dashed=1;endSize=8;elbow=horizontal;rounded=0;" edge="1" parent="1" source="SsyVgSXzkfGJAHjcYwTx-13" target="GkC1F4D74xaMyos7BvfS-3">
          <mxGeometry relative="1" as="geometry">
            <mxPoint x="55" y="850" as="targetPoint" />
            <Array as="points">
              <mxPoint x="110" y="820" />
            </Array>
            <mxPoint x="160.5" y="690" as="sourcePoint" />
            <mxPoint as="offset" />
          </mxGeometry>
        </mxCell>
        <mxCell id="SsyVgSXzkfGJAHjcYwTx-17" value="throw Bad Request &lt;br&gt;Exception" style="html=1;verticalAlign=bottom;endArrow=open;dashed=1;elbow=horizontal;rounded=0;" edge="1" parent="1" source="SsyVgSXzkfGJAHjcYwTx-16" target="SsyVgSXzkfGJAHjcYwTx-18">
          <mxGeometry relative="1" as="geometry">
            <mxPoint x="173" y="680" as="targetPoint" />
            <mxPoint x="285" y="680" as="sourcePoint" />
            <mxPoint as="offset" />
          </mxGeometry>
        </mxCell>
        <mxCell id="SsyVgSXzkfGJAHjcYwTx-19" value="response 400" style="html=1;verticalAlign=bottom;endArrow=open;dashed=1;endSize=8;elbow=horizontal;rounded=0;" edge="1" parent="1" source="SsyVgSXzkfGJAHjcYwTx-18" target="GkC1F4D74xaMyos7BvfS-3">
          <mxGeometry relative="1" as="geometry">
            <mxPoint x="60" y="690" as="targetPoint" />
            <Array as="points">
              <mxPoint x="115" y="690" />
            </Array>
            <mxPoint x="168" y="690" as="sourcePoint" />
            <mxPoint as="offset" />
          </mxGeometry>
        </mxCell>
        <mxCell id="SsyVgSXzkfGJAHjcYwTx-20" value="validateSchema()" style="text;html=1;align=center;verticalAlign=middle;resizable=0;points=[];autosize=1;strokeColor=none;fillColor=none;" vertex="1" parent="1">
          <mxGeometry x="290" y="604" width="120" height="30" as="geometry" />
        </mxCell>
        <mxCell id="SsyVgSXzkfGJAHjcYwTx-21" value="validateFile()" style="text;html=1;align=center;verticalAlign=middle;resizable=0;points=[];autosize=1;strokeColor=none;fillColor=none;" vertex="1" parent="1">
          <mxGeometry x="295" y="658" width="90" height="30" as="geometry" />
        </mxCell>
        <mxCell id="SsyVgSXzkfGJAHjcYwTx-24" value="find query" style="text;html=1;align=center;verticalAlign=middle;resizable=0;points=[];autosize=1;strokeColor=none;fillColor=none;" vertex="1" parent="1">
          <mxGeometry x="941" y="700" width="80" height="30" as="geometry" />
        </mxCell>
        <mxCell id="SsyVgSXzkfGJAHjcYwTx-25" value="return User" style="html=1;verticalAlign=bottom;endArrow=open;dashed=1;elbow=horizontal;rounded=0;" edge="1" parent="1" source="SsyVgSXzkfGJAHjcYwTx-23" target="SsyVgSXzkfGJAHjcYwTx-26">
          <mxGeometry x="0.0833" y="20" relative="1" as="geometry">
            <mxPoint x="821" y="730" as="targetPoint" />
            <mxPoint x="941" y="730" as="sourcePoint" />
            <mxPoint as="offset" />
            <Array as="points" />
          </mxGeometry>
        </mxCell>
        <mxCell id="SsyVgSXzkfGJAHjcYwTx-27" value="" style="html=1;points=[];perimeter=orthogonalPerimeter;outlineConnect=0;targetShapes=umlLifeline;portConstraint=eastwest;newEdgeStyle={&quot;edgeStyle&quot;:&quot;elbowEdgeStyle&quot;,&quot;elbow&quot;:&quot;vertical&quot;,&quot;curved&quot;:0,&quot;rounded&quot;:0};" vertex="1" parent="1">
          <mxGeometry x="675" y="730" width="10" height="10" as="geometry" />
        </mxCell>
        <mxCell id="SsyVgSXzkfGJAHjcYwTx-28" value="return User" style="html=1;verticalAlign=bottom;endArrow=open;dashed=1;elbow=horizontal;rounded=0;" edge="1" parent="1" source="SsyVgSXzkfGJAHjcYwTx-26" target="SsyVgSXzkfGJAHjcYwTx-27">
          <mxGeometry x="0.0833" y="20" relative="1" as="geometry">
            <mxPoint x="686" y="730" as="targetPoint" />
            <mxPoint x="806" y="730" as="sourcePoint" />
            <mxPoint as="offset" />
            <Array as="points">
              <mxPoint x="746" y="730" />
            </Array>
          </mxGeometry>
        </mxCell>
        <mxCell id="SsyVgSXzkfGJAHjcYwTx-29" value="" style="html=1;points=[];perimeter=orthogonalPerimeter;outlineConnect=0;targetShapes=umlLifeline;portConstraint=eastwest;newEdgeStyle={&quot;edgeStyle&quot;:&quot;elbowEdgeStyle&quot;,&quot;elbow&quot;:&quot;vertical&quot;,&quot;curved&quot;:0,&quot;rounded&quot;:0};" vertex="1" parent="1">
          <mxGeometry x="555" y="740" width="10" height="10" as="geometry" />
        </mxCell>
        <mxCell id="SsyVgSXzkfGJAHjcYwTx-30" value="return User" style="html=1;verticalAlign=bottom;endArrow=open;dashed=1;elbow=horizontal;rounded=0;" edge="1" parent="1" target="SsyVgSXzkfGJAHjcYwTx-29" source="SsyVgSXzkfGJAHjcYwTx-27">
          <mxGeometry x="0.0833" y="20" relative="1" as="geometry">
            <mxPoint x="566" y="740" as="targetPoint" />
            <mxPoint x="686" y="740" as="sourcePoint" />
            <mxPoint as="offset" />
            <Array as="points">
              <mxPoint x="630" y="740" />
            </Array>
          </mxGeometry>
        </mxCell>
        <mxCell id="SsyVgSXzkfGJAHjcYwTx-32" value="throw Bad Request Exception" style="html=1;verticalAlign=bottom;endArrow=open;dashed=1;elbow=horizontal;rounded=0;" edge="1" parent="1" source="SsyVgSXzkfGJAHjcYwTx-29" target="SsyVgSXzkfGJAHjcYwTx-33">
          <mxGeometry relative="1" as="geometry">
            <mxPoint x="283" y="750" as="targetPoint" />
            <mxPoint x="555" y="750" as="sourcePoint" />
            <mxPoint as="offset" />
          </mxGeometry>
        </mxCell>
        <mxCell id="SsyVgSXzkfGJAHjcYwTx-35" value="[Email exist]" style="text;html=1;align=center;verticalAlign=middle;resizable=0;points=[];autosize=1;strokeColor=none;fillColor=none;" vertex="1" parent="1">
          <mxGeometry x="-47.5" y="740" width="90" height="30" as="geometry" />
        </mxCell>
        <mxCell id="SsyVgSXzkfGJAHjcYwTx-37" value="[Invalid file type, &lt;br&gt;Too many files]" style="text;html=1;align=center;verticalAlign=middle;resizable=0;points=[];autosize=1;strokeColor=none;fillColor=none;" vertex="1" parent="1">
          <mxGeometry x="-55" y="665" width="110" height="40" as="geometry" />
        </mxCell>
        <mxCell id="SsyVgSXzkfGJAHjcYwTx-34" value="response 400" style="html=1;verticalAlign=bottom;endArrow=open;dashed=1;endSize=8;elbow=horizontal;rounded=0;" edge="1" parent="1" source="SsyVgSXzkfGJAHjcYwTx-33" target="GkC1F4D74xaMyos7BvfS-3">
          <mxGeometry relative="1" as="geometry">
            <mxPoint x="55" y="762" as="targetPoint" />
            <Array as="points">
              <mxPoint x="118" y="760" />
            </Array>
            <mxPoint x="161" y="762.0000000000001" as="sourcePoint" />
            <mxPoint as="offset" />
          </mxGeometry>
        </mxCell>
      </root>
    </mxGraphModel>
  </diagram>
</mxfile>
